<svg width="27" height="24" viewBox="0 0 27 24" fill="none" xmlns="http://www.w3.org/2000/svg">
<path fill-rule="evenodd" clip-rule="evenodd" d="M0.75 5.47255V18.5451C0.75 19.3326 1.275 20.0151 2.0625 20.2426L13.4375 23.2701C13.7175 23.3576 14.0325 23.3576 14.3125 23.2701L25.6875 20.2426C26.475 20.0151 27 19.3326 27 18.5451V5.47255C27 4.68505 26.475 4.00255 25.6875 3.77505L14.3125 0.730053C14.0232 0.677548 13.7268 0.677548 13.4375 0.730053L2.0625 3.77505C1.275 4.00255 0.75 4.68505 0.75 5.47255ZM13 21.3801L2.5 18.5976V6.75005L13 9.56755V21.3801ZM2.5 5.00005L6.875 3.82755L18.25 6.85505L13.875 8.02755L2.5 5.00005ZM25.25 18.5976L14.75 21.3801V9.56755L18.25 8.60505V12.8751L21.75 11.9476V7.67755L25.25 6.75005V18.5976ZM21.75 5.92755L10.375 2.90005L13.875 1.97255L25.25 5.00005L21.75 5.92755Z" fill="white"/>
</svg>
