<svg width="22" height="22" viewBox="0 0 22 22" fill="none" xmlns="http://www.w3.org/2000/svg">
<g clip-path="url(#clip0_35_52)">
<path d="M1.13023 12.2073L10.9195 3.66026L20.7088 12.2073C20.846 12.3244 21.0235 12.3824 21.2028 12.3686C21.3821 12.3548 21.5488 12.2703 21.6667 12.1334C21.7845 11.9966 21.8441 11.8185 21.8324 11.6377C21.8207 11.4569 21.7387 11.288 21.6042 11.1678L11.3672 2.23026C11.2431 2.12191 11.0844 2.06226 10.9202 2.06226C10.756 2.06226 10.5973 2.12191 10.4732 2.23026L6.82473 5.41476V4.12501C6.82473 3.76034 6.68093 3.4106 6.42495 3.15274C6.16898 2.89488 5.8218 2.75001 5.4598 2.75001C5.09779 2.75001 4.75062 2.89488 4.49464 3.15274C4.23867 3.4106 4.09486 3.76034 4.09486 4.12501V7.79764L0.234832 11.1678C0.0983252 11.2876 0.0145023 11.457 0.00171161 11.6389C-0.0110791 11.8209 0.0482044 12.0005 0.166585 12.1385C0.415003 12.4245 0.844957 12.4561 1.13023 12.2073ZM8.18966 15.125H13.6494V22H17.7442C18.1062 22 18.4534 21.8551 18.7094 21.5973C18.9653 21.3394 19.1091 20.9897 19.1091 20.625V13.8861C19.1091 13.4736 18.9262 13.0845 18.6096 12.8233L11.7849 7.18714C11.5411 6.98511 11.2352 6.87466 10.9195 6.87466C10.6038 6.87466 10.298 6.98511 10.0542 7.18714L3.2295 12.8233C3.07313 12.952 2.94717 13.1141 2.86076 13.298C2.77435 13.4818 2.72966 13.6827 2.72993 13.8861V20.625C2.72993 20.9897 2.87374 21.3394 3.12971 21.5973C3.38569 21.8551 3.73286 22 4.09486 22H8.18966V15.125Z" fill="black"/>
</g>
<defs>
<clipPath id="clip0_35_52">
<rect width="22" height="22" fill="white"/>
</clipPath>
</defs>
</svg>
