<svg width="23" height="22" viewBox="0 0 23 22" fill="none" xmlns="http://www.w3.org/2000/svg">
<path d="M2.26562 19.9821C2.71451 20.4315 3.24757 20.788 3.83433 21.0312C4.42108 21.2745 5.05003 21.3997 5.6852 21.3997C6.32038 21.3997 6.94932 21.2745 7.53608 21.0312C8.12284 20.788 8.6559 20.4315 9.10479 19.9821L22.4871 6.59377C22.8798 6.20107 22.6925 6.09836 21.315 2.88419L17.3154 0.660856C17.2006 0.597721 17.0685 0.573599 16.9388 0.592123C16.8091 0.610649 16.689 0.670818 16.5965 0.763565C5.49187 11.8681 5.98729 11.6204 4.83333 11.8379C0.507496 12.8227 -0.223547 17.4929 2.26562 19.9821ZM9.66666 12.714C12.4458 9.93482 12.1921 10.2369 12.0833 10.1523C11.8471 9.90978 11.715 9.58461 11.715 9.24607C11.715 8.90752 11.8471 8.58235 12.0833 8.33982C13.9381 6.48502 14.204 6.00773 14.9531 6.00773C15.1371 6.00887 15.3188 6.04873 15.4864 6.12471C15.654 6.2007 15.8037 6.31111 15.9258 6.44877C17.5812 4.7994 17.5571 4.74502 17.8833 4.74502C18.0033 4.74433 18.1208 4.77938 18.2208 4.84572C18.3208 4.91206 18.3988 5.00667 18.4448 5.1175C18.4908 5.22833 18.5028 5.35036 18.4792 5.46802C18.4556 5.58568 18.3975 5.69364 18.3123 5.77815C16.5662 7.52419 16.7596 7.28253 16.8442 7.36711C17.0818 7.6089 17.2149 7.93435 17.2149 8.27336C17.2149 8.61237 17.0818 8.93782 16.8442 9.17961L14.9048 11.125C14.7775 11.248 14.6268 11.3441 14.4617 11.4078C14.2966 11.4715 14.1204 11.5014 13.9435 11.4958C13.7666 11.4901 13.5926 11.4491 13.4319 11.375C13.2712 11.301 13.1269 11.1954 13.0077 11.0646L10.5065 13.5417C10.391 13.616 10.2537 13.6489 10.1172 13.6348C9.9806 13.6207 9.85291 13.5605 9.75513 13.4641C9.65734 13.3677 9.5953 13.2409 9.57922 13.1046C9.56314 12.9682 9.59398 12.8305 9.66666 12.714ZM4.28958 15.1306C4.56747 14.8524 4.92164 14.6629 5.30728 14.586C5.69292 14.5091 6.09271 14.5483 6.45605 14.6987C6.8194 14.8491 7.12997 15.1039 7.34849 15.4308C7.56701 15.7577 7.68364 16.1421 7.68364 16.5353C7.68364 16.9286 7.56701 17.313 7.34849 17.6399C7.12997 17.9668 6.8194 18.2216 6.45605 18.372C6.09271 18.5223 5.69292 18.5616 5.30728 18.4847C4.92164 18.4078 4.56747 18.2182 4.28958 17.94C3.92446 17.5692 3.71881 17.0703 3.71656 16.5499C3.7143 16.0295 3.91561 15.5288 4.2775 15.1548L4.28958 15.1306Z" fill="white"/>
</svg>
