<svg width="25" height="25" viewBox="0 0 25 25" fill="none" xmlns="http://www.w3.org/2000/svg">
<g clip-path="url(#clip0_13_84)">
<path d="M12.692 0C6.065 0 0.692 5.373 0.692 12C0.692 14.333 1.369 16.504 2.521 18.347L0 24.763L6.444 22.23C8.266 23.346 10.4 24 12.692 24C19.319 24 24.692 18.627 24.692 12C24.692 5.373 19.32 0 12.692 0ZM12.692 22C10.864 22 9.065 21.49 7.488 20.525L6.639 20.005L3.539 21.223L4.75 18.141L4.216 17.287C3.22 15.691 2.692 13.863 2.692 12C2.692 6.486 7.178 2 12.692 2C18.206 2 22.692 6.486 22.692 12C22.692 17.514 18.207 22 12.692 22Z" fill="black"/>
<path d="M10.0001 14.693C11.3681 16.061 14.5231 18.051 16.2791 17.517C18.0351 16.983 18.2981 16.042 18.2981 16.042L18.2591 14.586L15.3961 13.586C15.3961 13.586 14.7591 13.641 13.8921 14.663C12.7271 14.508 11.4791 13.214 11.4791 13.214C11.4791 13.214 10.1851 11.965 10.0301 10.801C11.0521 9.93404 11.1071 9.29704 11.1071 9.29704L10.1071 6.43404L8.65108 6.39404C8.65108 6.39404 7.71008 6.65604 7.17608 8.41304C6.64208 10.17 8.63108 13.324 10.0001 14.693Z" fill="black"/>
</g>
<defs>
<clipPath id="clip0_13_84">
<rect width="24.692" height="24.763" fill="white"/>
</clipPath>
</defs>
</svg>
